<svg xmlns="http://www.w3.org/2000/svg" xmlns:xlink="http://www.w3.org/1999/xlink" width="48" height="48" viewBox="0 0 48 48">
  <defs>
    <clipPath id="clip-icon_bedroom">
      <rect width="48" height="48"/>
    </clipPath>
  </defs>
  <g id="icon_bedroom" clip-path="url(#clip-icon_bedroom)">
    <g id="icon_bedroom-2" data-name="icon_bedroom">
      <rect id="box" width="48" height="48" fill="none"/>
      <g id="Rectangle_13" data-name="Rectangle 13" transform="translate(11 14)" fill="none" stroke="#3252df" stroke-width="3">
        <path d="M4,0H8a4,4,0,0,1,4,4v8a0,0,0,0,1,0,0H0a0,0,0,0,1,0,0V4A4,4,0,0,1,4,0Z" stroke="none"/>
        <path d="M4,1.5H8A2.5,2.5,0,0,1,10.5,4V9A1.5,1.5,0,0,1,9,10.5H3A1.5,1.5,0,0,1,1.5,9V4A2.5,2.5,0,0,1,4,1.5Z" fill="none"/>
      </g>
      <g id="Rectangle_14" data-name="Rectangle 14" transform="translate(25 14)" fill="none" stroke="#3252df" stroke-width="3">
        <path d="M4,0H8a4,4,0,0,1,4,4v8a0,0,0,0,1,0,0H0a0,0,0,0,1,0,0V4A4,4,0,0,1,4,0Z" stroke="none"/>
        <path d="M4,1.5H8A2.5,2.5,0,0,1,10.5,4V9A1.5,1.5,0,0,1,9,10.5H3A1.5,1.5,0,0,1,1.5,9V4A2.5,2.5,0,0,1,4,1.5Z" fill="none"/>
      </g>
      <g id="Rectangle_5" data-name="Rectangle 5" transform="translate(6 2)" fill="none" stroke="#152c5b" stroke-width="3">
        <path d="M10,0H26A10,10,0,0,1,36,10V24a0,0,0,0,1,0,0H0a0,0,0,0,1,0,0V10A10,10,0,0,1,10,0Z" stroke="none"/>
        <path d="M10,1.5H26A8.5,8.5,0,0,1,34.5,10V21A1.5,1.5,0,0,1,33,22.5H3A1.5,1.5,0,0,1,1.5,21V10A8.5,8.5,0,0,1,10,1.5Z" fill="none"/>
      </g>
      <g id="Rectangle_12" data-name="Rectangle 12" transform="translate(0 23)" fill="none" stroke="#152c5b" stroke-width="3">
        <path d="M4,0H44a4,4,0,0,1,4,4V14a2,2,0,0,1-2,2H2a2,2,0,0,1-2-2V4A4,4,0,0,1,4,0Z" stroke="none"/>
        <path d="M4,1.5H44A2.5,2.5,0,0,1,46.5,4V14a.5.5,0,0,1-.5.5H2a.5.5,0,0,1-.5-.5V4A2.5,2.5,0,0,1,4,1.5Z" fill="none"/>
      </g>
      <path id="Path_3" data-name="Path 3" d="M17-75.068c-.015,8.071,0,8,0,8" transform="translate(-12 113)" fill="none" stroke="#152c5b" stroke-linecap="round" stroke-width="3"/>
      <path id="Path_6" data-name="Path 6" d="M17-75.068c-.015,8.071,0,8,0,8" transform="translate(26 113)" fill="none" stroke="#152c5b" stroke-linecap="round" stroke-width="3"/>
      <path id="Path_3-2" data-name="Path 3" d="M17-38.045c-.015-37.353,0-37.023,0-37.023" transform="translate(-32.074 25.494) rotate(90)" fill="none" stroke="#152c5b" stroke-linecap="round" stroke-width="3"/>
    </g>
  </g>
</svg>
