<svg xmlns="http://www.w3.org/2000/svg" xmlns:xlink="http://www.w3.org/1999/xlink" width="48" height="48" viewBox="0 0 48 48">
  <defs>
    <clipPath id="clip-icon_livingroom">
      <rect width="48" height="48"/>
    </clipPath>
  </defs>
  <g id="icon_livingroom" clip-path="url(#clip-icon_livingroom)">
    <g id="icon_livingroom-2" data-name="icon_livingroom">
      <rect id="box" width="48" height="48" fill="none"/>
      <g id="Rectangle_12" data-name="Rectangle 12" transform="translate(0 25)" fill="none" stroke="#152c5b" stroke-width="3">
        <rect width="24" height="14" rx="4" stroke="none"/>
        <rect x="1.5" y="1.5" width="21" height="11" rx="2.5" fill="none"/>
      </g>
      <path id="Path_3" data-name="Path 3" d="M17-75.068c-.015,8.071,0,8,0,8" transform="translate(-12 113)" fill="none" stroke="#152c5b" stroke-linecap="round" stroke-width="3"/>
      <path id="Path_6" data-name="Path 6" d="M17-75.068c-.015,8.071,0,8,0,8" transform="translate(2 113)" fill="none" stroke="#152c5b" stroke-linecap="round" stroke-width="3"/>
      <path id="Path_8" data-name="Path 8" d="M17-75.068c-.015,10.089,0,10,0,10" transform="translate(-5 90.068)" fill="none" stroke="#152c5b" stroke-linecap="round" stroke-width="3"/>
      <path id="Path_9" data-name="Path 9" d="M17-75.068c-.015,4.036,0,4,0,4" transform="translate(1 90.068)" fill="none" stroke="#152c5b" stroke-linecap="round" stroke-width="3"/>
      <g id="Path_7" data-name="Path 7" transform="translate(4.873 1)" fill="none">
        <path d="M.2,0H15.324L17.5,14h-20Z" stroke="none"/>
        <path d="M 2.677043914794922 3 L 1.132941246032715 11 L 13.99659729003906 11 L 12.75403118133545 3 L 2.677043914794922 3 M 0.2007150650024414 0 L 15.32404518127441 0 L 17.49853515625 14 L -2.50146484375 14 L 0.2007150650024414 0 Z" stroke="none" fill="#3252df"/>
      </g>
    </g>
  </g>
</svg>
