<svg xmlns="http://www.w3.org/2000/svg" xmlns:xlink="http://www.w3.org/1999/xlink" width="48" height="48" viewBox="0 0 48 48">
  <defs>
    <clipPath id="clip-icon_tv">
      <rect width="48" height="48"/>
    </clipPath>
  </defs>
  <g id="icon_tv" clip-path="url(#clip-icon_tv)">
    <g id="icon_tv-2" data-name="icon_tv">
      <rect id="box" width="48" height="48" fill="none"/>
      <g id="Rectangle_12" data-name="Rectangle 12" transform="translate(46 36) rotate(180)" fill="none" stroke="#152c5b" stroke-width="3">
        <rect width="44" height="32" rx="8" stroke="none"/>
        <rect x="1.5" y="1.5" width="41" height="29" rx="6.5" fill="none"/>
      </g>
      <path id="Path_3" data-name="Path 3" d="M.006,0c-.015,7.062,0,7,0,7" transform="translate(19.804 42.006) rotate(180)" fill="none" stroke="#152c5b" stroke-linecap="round" stroke-width="3"/>
      <path id="Path_20" data-name="Path 20" d="M.006,0c-.015,7.062,0,7,0,7" transform="translate(28.804 42.006) rotate(180)" fill="none" stroke="#152c5b" stroke-linecap="round" stroke-width="3"/>
      <path id="Path_21" data-name="Path 21" d="M.006,0c-.015,21.187,0,21,0,21" transform="translate(14.3 42.51) rotate(-90)" fill="none" stroke="#152c5b" stroke-linecap="round" stroke-width="3"/>
      <g id="Polygon_1" data-name="Polygon 1" transform="translate(34.5 11.5) rotate(90)" fill="none">
        <path d="M6.711,3.578a2,2,0,0,1,3.578,0l5.264,10.528A2,2,0,0,1,13.764,17H3.236a2,2,0,0,1-1.789-2.894Z" stroke="none"/>
        <path d="M 8.5 6.70820426940918 L 4.854100227355957 13.99999618530273 L 12.14589881896973 13.99999618530273 L 8.5 6.70820426940918 M 8.499996185302734 2.472137451171875 C 9.210159301757813 2.472137451171875 9.920324325561523 2.840660095214844 10.28884983062744 3.577705383300781 L 15.55278968811035 14.10557556152344 C 16.21768951416016 15.43537521362305 15.25069046020508 16.99999618530273 13.76393032073975 16.99999618530273 L 3.236069679260254 16.99999618530273 C 1.749300003051758 16.99999618530273 0.7823104858398438 15.43537521362305 1.447210311889648 14.10557556152344 L 6.711150169372559 3.577705383300781 C 7.079669952392578 2.840660095214844 7.78983211517334 2.472137451171875 8.499996185302734 2.472137451171875 Z" stroke="none" fill="#3252df"/>
      </g>
    </g>
  </g>
</svg>
