<svg xmlns="http://www.w3.org/2000/svg" xmlns:xlink="http://www.w3.org/1999/xlink" width="48" height="48" viewBox="0 0 48 48">
  <defs>
    <clipPath id="clip-icon_bathroom">
      <rect width="48" height="48"/>
    </clipPath>
  </defs>
  <g id="icon_bathroom" clip-path="url(#clip-icon_bathroom)">
    <g id="icon_bathroom-2" data-name="icon_bathroom">
      <rect id="box" width="48" height="48" fill="none"/>
      <path id="Path_10" data-name="Path 10" d="M17-59.068s-.015.143,0-16c0-1.7-1.1-3.427-2.733-3.43-2-.025-4.355,2.027-4.355,2.027l-.963.944" transform="translate(24 80.663)" fill="none" stroke="#3252df" stroke-linecap="round" stroke-width="3"/>
      <g id="Rectangle_5" data-name="Rectangle 5" transform="translate(0 21)" fill="none" stroke="#152c5b" stroke-width="3">
        <rect width="48" height="10" rx="4" stroke="none"/>
        <rect x="1.5" y="1.5" width="45" height="7" rx="2.5" fill="none"/>
      </g>
      <g id="Rectangle_12" data-name="Rectangle 12" transform="translate(4 28)" fill="none" stroke="#152c5b" stroke-width="3">
        <path d="M0,0H40a0,0,0,0,1,0,0V11a5,5,0,0,1-5,5H5a5,5,0,0,1-5-5V0A0,0,0,0,1,0,0Z" stroke="none"/>
        <path d="M3,1.5H37A1.5,1.5,0,0,1,38.5,3v8A3.5,3.5,0,0,1,35,14.5H5A3.5,3.5,0,0,1,1.5,11V3A1.5,1.5,0,0,1,3,1.5Z" fill="none"/>
      </g>
      <path id="Path_3" data-name="Path 3" d="M17-75.068c-.015,3.027,0,3,0,3" transform="translate(-6 118)" fill="none" stroke="#152c5b" stroke-linecap="round" stroke-width="3"/>
      <path id="Path_6" data-name="Path 6" d="M17-75.068c-.015,3.027,0,3,0,3" transform="translate(20 118)" fill="none" stroke="#152c5b" stroke-linecap="round" stroke-width="3"/>
    </g>
  </g>
</svg>
